<?xml version="1.0" encoding="UTF-8" standalone="no"?>
<svg xmlns="http://www.w3.org/2000/svg" version="1.2" xmlns:xlink="http://www.w3.org/1999/xlink" xmlns:inkscape="http://www.inkscape.org/namespaces/inkscape" xmlns:sodipodi="http://sodipodi.sourceforge.net/DTD/sodipodi-0.dtd" width="646.578125" height="465.66015625"><path d="m 500.25635 215.66013 a 53.658658 53.776951, 0, 1, 1, -53.6586 53.77813 a 53.658658 53.776951, 0, 1, 1, 19.40703 41.37171 l -43.05423 0 C 399.29737 310.80997, 380.25635 329.89404, 380.25635 353.59889 l 0 59.27228 c 0 23.7047, 19.04102 42.789, 42.6942 42.789 l 154.61159 0 C 601.21533 455.66017, 620.25635 436.52587, 620.25635 412.87117 l 0 -59.27228 C 620.25635 329.89404, 601.21533 310.80997, 577.56214 310.80997 l -43.09599 0 A 53.658658 53.776951, 0, 1, 1, 553.91495 269.43826 A 53.658658 53.776951, 0, 1, 1, 500.25635 215.66013 Z" id="path-persona" inkscape:connector-curvature="0" style="opacity:1;fill:#000080;fill-opacity:1;fill-rule:nonzero;stroke:none;stroke-width:2;stroke-linecap:round;stroke-linejoin:round;stroke-miterlimit:4;stroke-dasharray:none;stroke-dashoffset:0;stroke-opacity:1"></path><text sodipodi:linespacing="125%" id="text-persona" y="400" x="500" style="font-style:normal;font-variant:normal;font-weight:bold;font-stretch:normal;font-size:24pt;line-height:125%;font-family:Verdana;-inkscape-font-specification:'Verdana, Bold';text-align:center;letter-spacing:0px;word-spacing:0px;writing-mode:lr-tb;text-anchor:middle;fill:#ffffff;fill-opacity:1;stroke:none;stroke-width:1px;stroke-linecap:butt;stroke-linejoin:miter;stroke-opacity:1" xml:space="preserve"><tspan y="400" x="500" id="tspan-persona" sodipodi:role="line">Usuario</tspan></text></svg>